<?xml version="1.0" standalone="no"?>
<!DOCTYPE svg PUBLIC "-//W3C//DTD SVG 20010904//EN"
 "http://www.w3.org/TR/2001/REC-SVG-20010904/DTD/svg10.dtd">
<svg version="1.0" xmlns="http://www.w3.org/2000/svg"
 width="512.000000pt" height="512.000000pt" viewBox="0 0 512.000000 512.000000"
 preserveAspectRatio="xMidYMid meet">
<metadata>
Created by potrace 1.11, written by Peter Selinger 2001-2013
</metadata>
<g transform="translate(0.000000,512.000000) scale(0.100000,-0.100000)"
fill="#000000" stroke="none">
<path d="M2340 4340 c-695 -96 -1262 -562 -1479 -1215 -72 -219 -96 -389 -88
-629 28 -848 632 -1543 1480 -1703 69 -13 145 -17 307 -18 186 0 231 3 330 23
746 151 1296 707 1437 1455 13 69 17 145 18 307 0 243 -16 350 -82 554 -38
120 -97 256 -110 256 -4 0 -384 -376 -843 -835 l-835 -835 -482 482 -483 483
162 162 163 163 322 -322 323 -323 708 708 707 708 -90 86 c-264 251 -580 413
-932 479 -103 19 -434 27 -533 14z"/>
</g>
</svg>
